<?xml version="1.0" encoding="UTF-8"?>
<svg xmlns="http://www.w3.org/2000/svg" width="320" height="320" version="1.1">
    <defs>
        <mask id="mask">
            <rect width="320" height="320" x="0" y="0" fill="#fff"/>
            <polygon fill="#000" points="180,40 180,100 240,100"/>
            <path fill="none" stroke="#000" stroke-width="15" d="M 140,140 C 140,120 160,120 160,140 C 160,180 140,240 100,280 C 80,300 55,295 75,275 C 95,255 200,220 240,240 C 260,250 240,280 220,260 C 200,240 140,190 140,140"/>
        </mask>
    </defs>
    <polygon fill="#ff3f3f" points="40,0 40,320 280,320 280,100 180,0" mask="url(#mask)"/>
</svg>
