<svg id="svg" version="1.1" width="515" height="515" xmlns="http://www.w3.org/2000/svg" xmlns:xlink="http://www.w3.org/1999/xlink" style="display: block;"><g id="svgg"><path id="path0" d="M93.670 42.664 C 93.301 43.032,93.000 70.483,93.000 103.667 L 93.000 164.000 112.500 164.000 L 132.000 164.000 132.000 125.500 L 132.000 87.000 257.500 87.000 L 383.000 87.000 383.000 125.500 L 383.000 164.000 402.508 164.000 L 422.015 164.000 421.758 103.250 L 421.500 42.500 257.920 42.247 C 167.950 42.108,94.038 42.295,93.670 42.664 M74.000 257.500 L 74.000 325.000 96.500 325.000 L 119.000 325.000 119.000 302.500 L 119.000 280.000 122.500 280.000 L 126.000 280.000 126.000 302.500 L 126.000 325.000 145.000 325.000 L 164.000 325.000 164.000 257.500 L 164.000 190.000 145.000 190.000 L 126.000 190.000 126.000 212.500 L 126.000 235.000 122.500 235.000 L 119.000 235.000 119.000 212.500 L 119.000 190.000 96.500 190.000 L 74.000 190.000 74.000 257.500 M171.000 208.864 L 171.000 227.728 175.640 228.364 C 178.191 228.714,182.466 229.000,185.140 229.000 L 190.000 229.000 190.000 277.000 L 190.000 325.000 208.883 325.000 C 227.621 325.000,227.771 324.983,228.370 322.750 C 228.701 321.512,228.979 299.913,228.986 274.750 L 229.000 229.000 233.250 228.991 C 235.588 228.987,239.863 228.699,242.750 228.352 L 248.000 227.721 248.000 208.861 L 248.000 190.000 209.500 190.000 L 171.000 190.000 171.000 208.864 M254.000 257.500 L 254.000 325.000 273.500 325.000 L 293.000 325.000 293.000 296.000 L 293.000 267.000 296.000 267.000 C 298.522 267.000,299.000 267.393,299.000 269.465 C 299.000 272.320,301.539 274.000,305.852 274.000 C 310.531 274.000,312.000 273.045,312.000 270.002 C 312.000 267.566,312.436 267.168,315.500 266.810 L 319.000 266.402 319.000 295.701 L 319.000 325.000 338.000 325.000 L 357.000 325.000 357.000 257.481 L 357.000 189.962 334.750 190.231 L 312.500 190.500 312.196 193.121 C 311.540 198.775,299.000 198.428,299.000 192.755 L 299.000 190.000 276.500 190.000 L 254.000 190.000 254.000 257.500 M364.000 257.500 L 364.000 325.000 402.500 325.000 L 441.000 325.000 441.000 306.136 L 441.000 287.272 436.360 286.636 C 433.809 286.286,426.609 286.000,420.360 286.000 L 409.000 286.000 409.000 238.000 L 409.000 190.000 386.500 190.000 L 364.000 190.000 364.000 257.500 M93.242 411.750 L 93.500 472.500 257.500 472.500 L 421.500 472.500 421.758 411.750 L 422.015 351.000 402.508 351.000 L 383.000 351.000 383.000 389.500 L 383.000 428.000 257.500 428.000 L 132.000 428.000 132.000 389.500 L 132.000 351.000 112.492 351.000 L 92.985 351.000 93.242 411.750 " stroke="none" fill="#c5c5c5" fill-rule="evenodd"></path></g></svg>