<svg id="svg" version="1.1" width="400" height="400" xmlns="http://www.w3.org/2000/svg" xmlns:xlink="http://www.w3.org/1999/xlink" style="display: block;"><g id="svgg"><path id="path0" d="M200.000 200.000 L 200.000 400.000 300.000 400.000 L 400.000 400.000 400.000 200.000 L 400.000 0.000 300.000 0.000 L 200.000 0.000 200.000 200.000 M13.382 13.382 L 12.400 14.364 12.400 41.528 C 12.400 68.404,12.409 68.703,13.229 69.746 L 14.058 70.800 100.000 70.800 L 185.942 70.800 186.771 69.746 C 187.591 68.703,187.600 68.404,187.600 41.528 L 187.600 14.364 186.618 13.382 L 185.636 12.400 100.000 12.400 L 14.364 12.400 13.382 13.382 M386.618 13.382 L 387.600 14.364 387.600 41.528 C 387.600 68.404,387.591 68.703,386.771 69.746 L 385.942 70.800 300.000 70.800 L 214.058 70.800 213.229 69.746 C 212.409 68.703,212.400 68.404,212.400 41.528 L 212.400 14.364 213.382 13.382 L 214.364 12.400 300.000 12.400 L 385.636 12.400 386.618 13.382 M13.455 84.255 L 12.400 85.309 12.400 235.473 L 12.400 385.636 13.382 386.618 L 14.364 387.600 100.000 387.600 L 185.636 387.600 186.618 386.618 L 187.600 385.636 187.600 235.473 L 187.600 85.309 186.545 84.255 L 185.491 83.200 100.000 83.200 L 14.509 83.200 13.455 84.255 M386.545 84.255 L 387.600 85.309 387.600 235.473 L 387.600 385.636 386.618 386.618 L 385.636 387.600 300.000 387.600 L 214.364 387.600 213.382 386.618 L 212.400 385.636 212.400 235.473 L 212.400 85.309 213.455 84.255 L 214.509 83.200 300.000 83.200 L 385.491 83.200 386.545 84.255 M274.815 118.919 C 273.649 119.623,270.208 122.720,267.170 125.800 C 264.133 128.880,261.242 131.760,260.747 132.200 C 260.253 132.640,259.297 133.606,258.624 134.347 C 257.951 135.088,256.958 136.078,256.419 136.547 C 255.879 137.016,255.069 137.837,254.619 138.370 C 254.168 138.904,253.194 139.894,252.453 140.570 C 251.712 141.247,250.722 142.232,250.253 142.761 C 249.784 143.289,246.610 146.555,243.200 150.018 C 233.521 159.849,233.463 159.953,236.100 162.628 C 237.035 163.576,238.189 164.768,238.664 165.276 C 239.139 165.784,240.039 166.672,240.664 167.248 C 241.289 167.824,242.263 168.814,242.829 169.448 C 243.395 170.082,244.261 170.960,244.753 171.400 C 245.846 172.377,274.737 201.594,275.652 202.648 C 276.011 203.062,276.911 203.959,277.652 204.643 C 278.394 205.326,279.466 206.406,280.035 207.043 C 280.604 207.679,281.549 208.591,282.135 209.070 C 283.079 209.840,283.200 210.220,283.200 212.398 L 283.200 214.856 275.100 222.994 C 270.645 227.470,266.614 231.553,266.143 232.066 C 265.672 232.580,264.772 233.472,264.143 234.048 C 263.514 234.624,262.528 235.614,261.952 236.248 C 261.376 236.882,260.386 237.872,259.752 238.448 C 259.118 239.024,258.137 240.014,257.571 240.648 C 257.005 241.282,256.141 242.160,255.652 242.600 C 254.585 243.558,239.575 258.800,236.277 262.274 L 233.954 264.720 235.104 266.060 C 235.736 266.797,236.655 268.066,237.147 268.880 C 237.638 269.694,238.661 270.743,239.420 271.212 C 240.179 271.681,240.800 272.225,240.800 272.421 C 240.800 272.617,247.455 279.450,255.589 287.605 C 263.723 295.761,270.608 302.748,270.889 303.132 C 271.469 303.925,276.290 307.200,276.876 307.200 C 277.088 307.200,284.042 300.368,292.330 292.019 C 312.253 271.949,351.558 232.193,361.161 222.400 L 368.809 214.600 368.705 212.353 L 368.600 210.106 344.200 185.419 C 330.780 171.842,313.358 154.223,305.485 146.266 C 297.611 138.310,288.097 128.693,284.341 124.897 C 280.585 121.100,277.383 117.913,277.225 117.815 C 277.066 117.717,275.982 118.214,274.815 118.919 M119.407 154.979 C 121.823 157.277,123.980 159.354,124.200 159.595 C 124.420 159.835,127.630 163.130,131.333 166.916 C 140.568 176.359,140.800 176.605,140.800 176.981 C 140.800 177.610,137.758 180.850,125.000 193.805 C 117.960 200.954,111.502 207.612,110.648 208.601 L 109.096 210.400 110.648 212.203 C 111.502 213.194,117.960 219.853,125.000 227.002 C 137.683 239.880,140.800 243.194,140.800 243.802 C 140.800 244.128,137.908 247.445,136.094 249.200 C 135.525 249.750,134.597 250.714,134.030 251.343 C 133.464 251.972,132.564 252.872,132.031 253.343 C 131.497 253.814,130.464 254.830,129.733 255.600 C 129.003 256.370,128.003 257.360,127.511 257.800 C 127.019 258.240,126.163 259.114,125.609 259.743 C 125.054 260.372,124.166 261.272,123.635 261.743 C 123.104 262.214,122.204 263.114,121.635 263.743 C 121.066 264.372,120.172 265.272,119.648 265.743 C 119.124 266.214,117.845 267.365,116.806 268.300 C 115.767 269.235,114.775 270.000,114.602 270.000 C 113.926 270.000,109.962 266.147,86.207 242.400 C 72.673 228.870,61.295 217.530,60.924 217.200 C 60.058 216.430,58.836 215.121,56.534 212.500 L 54.691 210.400 56.445 208.438 C 59.617 204.892,60.258 204.210,61.235 203.343 C 61.766 202.872,62.663 201.972,63.229 201.343 C 63.795 200.714,64.654 199.840,65.139 199.400 C 65.623 198.960,66.780 197.839,67.710 196.910 C 68.639 195.980,69.760 194.823,70.200 194.339 C 70.640 193.854,71.514 192.995,72.143 192.429 C 72.772 191.863,73.672 190.963,74.143 190.430 C 74.614 189.896,75.614 188.906,76.363 188.230 C 77.113 187.553,78.103 186.566,78.563 186.035 C 79.024 185.504,79.914 184.604,80.543 184.035 C 81.172 183.466,82.072 182.579,82.543 182.064 C 88.414 175.651,113.864 150.849,114.607 150.817 C 114.831 150.808,116.991 152.680,119.407 154.979 " stroke="none" fill="#ffffff" fill-rule="evenodd"></path><path id="path1" d="M0.000 200.000 L 0.000 400.000 100.000 400.000 L 200.000 400.000 200.000 200.000 L 200.000 0.000 100.000 0.000 L 0.000 0.000 0.000 200.000 M186.618 13.382 L 187.600 14.364 187.600 41.528 C 187.600 68.404,187.591 68.703,186.771 69.746 L 185.942 70.800 100.000 70.800 L 14.058 70.800 13.229 69.746 C 12.409 68.703,12.400 68.404,12.400 41.528 L 12.400 14.364 13.382 13.382 L 14.364 12.400 100.000 12.400 L 185.636 12.400 186.618 13.382 M213.382 13.382 L 212.400 14.364 212.400 41.528 C 212.400 68.404,212.409 68.703,213.229 69.746 L 214.058 70.800 300.000 70.800 L 385.942 70.800 386.771 69.746 C 387.591 68.703,387.600 68.404,387.600 41.528 L 387.600 14.364 386.618 13.382 L 385.636 12.400 300.000 12.400 L 214.364 12.400 213.382 13.382 M186.545 84.255 L 187.600 85.309 187.600 235.473 L 187.600 385.636 186.618 386.618 L 185.636 387.600 100.000 387.600 L 14.364 387.600 13.382 386.618 L 12.400 385.636 12.400 235.473 L 12.400 85.309 13.455 84.255 L 14.509 83.200 100.000 83.200 L 185.491 83.200 186.545 84.255 M213.455 84.255 L 212.400 85.309 212.400 235.473 L 212.400 385.636 213.382 386.618 L 214.364 387.600 300.000 387.600 L 385.636 387.600 386.618 386.618 L 387.600 385.636 387.600 235.473 L 387.600 85.309 386.545 84.255 L 385.491 83.200 300.000 83.200 L 214.509 83.200 213.455 84.255 M284.341 124.897 C 288.097 128.693,297.611 138.310,305.485 146.266 C 313.358 154.223,330.780 171.842,344.200 185.419 L 368.600 210.106 368.705 212.353 L 368.809 214.600 361.161 222.400 C 351.558 232.193,312.253 271.949,292.330 292.019 C 284.042 300.368,277.088 307.200,276.876 307.200 C 276.290 307.200,271.469 303.925,270.889 303.132 C 270.608 302.748,263.723 295.761,255.589 287.605 C 247.455 279.450,240.800 272.617,240.800 272.421 C 240.800 272.225,240.179 271.681,239.420 271.212 C 238.661 270.743,237.638 269.694,237.147 268.880 C 236.655 268.066,235.736 266.797,235.104 266.060 L 233.954 264.720 236.277 262.274 C 239.575 258.800,254.585 243.558,255.652 242.600 C 256.141 242.160,257.005 241.282,257.571 240.648 C 258.137 240.014,259.118 239.024,259.752 238.448 C 260.386 237.872,261.376 236.882,261.952 236.248 C 262.528 235.614,263.514 234.624,264.143 234.048 C 264.772 233.472,265.672 232.580,266.143 232.066 C 266.614 231.553,270.645 227.470,275.100 222.994 L 283.200 214.856 283.200 212.398 C 283.200 210.220,283.079 209.840,282.135 209.070 C 281.549 208.591,280.604 207.679,280.035 207.043 C 279.466 206.406,278.394 205.326,277.652 204.643 C 276.911 203.959,276.011 203.062,275.652 202.648 C 274.737 201.594,245.846 172.377,244.753 171.400 C 244.261 170.960,243.395 170.082,242.829 169.448 C 242.263 168.814,241.289 167.824,240.664 167.248 C 240.039 166.672,239.139 165.784,238.664 165.276 C 238.189 164.768,237.035 163.576,236.100 162.628 C 233.463 159.953,233.521 159.849,243.200 150.018 C 246.610 146.555,249.784 143.289,250.253 142.761 C 250.722 142.232,251.712 141.247,252.453 140.570 C 253.194 139.894,254.168 138.904,254.619 138.370 C 255.069 137.837,255.879 137.016,256.419 136.547 C 256.958 136.078,257.951 135.088,258.624 134.347 C 259.297 133.606,260.253 132.640,260.747 132.200 C 261.242 131.760,264.133 128.880,267.170 125.800 C 272.146 120.755,276.451 117.337,277.225 117.815 C 277.383 117.913,280.585 121.100,284.341 124.897 M112.286 152.517 C 110.543 154.050,84.554 179.868,82.543 182.064 C 82.072 182.579,81.172 183.466,80.543 184.035 C 79.914 184.604,79.024 185.504,78.563 186.035 C 78.103 186.566,77.113 187.553,76.363 188.230 C 75.614 188.906,74.614 189.896,74.143 190.430 C 73.672 190.963,72.772 191.863,72.143 192.429 C 71.514 192.995,70.640 193.854,70.200 194.339 C 69.760 194.823,68.639 195.980,67.710 196.910 C 66.780 197.839,65.623 198.960,65.139 199.400 C 64.654 199.840,63.795 200.714,63.229 201.343 C 62.663 201.972,61.766 202.872,61.235 203.343 C 60.258 204.210,59.617 204.892,56.445 208.438 L 54.691 210.400 56.534 212.500 C 58.836 215.121,60.058 216.430,60.924 217.200 C 61.295 217.530,72.673 228.870,86.207 242.400 C 109.962 266.147,113.926 270.000,114.602 270.000 C 114.775 270.000,115.767 269.235,116.806 268.300 C 117.845 267.365,119.124 266.214,119.648 265.743 C 120.172 265.272,121.066 264.372,121.635 263.743 C 122.204 263.114,123.104 262.214,123.635 261.743 C 124.166 261.272,125.054 260.372,125.609 259.743 C 126.163 259.114,127.019 258.240,127.511 257.800 C 128.003 257.360,129.003 256.370,129.733 255.600 C 130.464 254.830,131.497 253.814,132.031 253.343 C 132.564 252.872,133.464 251.972,134.030 251.343 C 134.597 250.714,135.525 249.750,136.094 249.200 C 137.908 247.445,140.800 244.128,140.800 243.802 C 140.800 243.194,137.683 239.880,125.000 227.002 C 117.960 219.853,111.502 213.194,110.648 212.203 L 109.096 210.400 110.648 208.601 C 111.502 207.612,117.960 200.954,125.000 193.805 C 137.758 180.850,140.800 177.610,140.800 176.981 C 140.800 176.605,140.568 176.359,131.333 166.916 C 127.630 163.130,124.420 159.835,124.200 159.595 C 122.470 157.703,114.929 150.804,114.607 150.817 C 114.383 150.827,113.339 151.592,112.286 152.517 " stroke="none" fill="#007acd" fill-rule="evenodd"></path></g></svg>