<svg xmlns="http://www.w3.org/2000/svg" height="457.01" width="490.82" version="1.0">
<g id="heart">
  <path d="M138.636 12.921c-66.24 0-120 53.76-120 120 0 134.756 135.933 170.088 228.562 303.308 87.574-132.403 228.563-172.854 228.563-303.308 0-66.24-53.76-120-120-120-48.048 0-89.402 28.37-108.563 69.188-19.16-40.817-60.514-69.188-108.562-69.188z" fill="#e60000" stroke="#000" stroke-width="18.7"/>
  <path d="M140.22 31.37c-57.96 0-105 47.04-105 105 0 117.91 118.919 148.838 199.969 265.406 6.56-9.918-139.969-145.527-139.969-245.407 0-57.96 47.04-105 105-105 .505 0 .997.056 1.5.063-17.276-12.584-38.494-20.063-61.5-20.063z" fill="#e6e6e6" fill-opacity=".646"/>
</g>
</svg>
