<svg xmlns="http://www.w3.org/2000/svg" xmlns:xlink="http://www.w3.org/1999/xlink" width="800" height="700" version="1.1" style="background-color:#fff"><path id="horizontal_gridline0" stroke="gray" stroke-width=".4" d="M 0,0 L 800,0"/><path id="horizontal_gridline1" stroke="gray" stroke-width=".4" d="M 0,50 L 800,50"/><path id="horizontal_gridline2" stroke="gray" stroke-width=".4" d="M 0,100 L 800,100"/><path id="horizontal_gridline3" stroke="gray" stroke-width=".4" d="M 0,150 L 800,150"/><path id="horizontal_gridline4" stroke="gray" stroke-width=".4" d="M 0,200 L 800,200"/><path id="horizontal_gridline5" stroke="gray" stroke-width=".4" d="M 0,250 L 800,250"/><path id="horizontal_gridline6" stroke="gray" stroke-width=".4" d="M 0,300 L 800,300"/><path id="horizontal_gridline7" stroke="gray" stroke-width=".4" d="M 0,350 L 800,350"/><path id="horizontal_gridline8" stroke="gray" stroke-width=".4" d="M 0,400 L 800,400"/><path id="horizontal_gridline9" stroke="gray" stroke-width=".4" d="M 0,450 L 800,450"/><path id="horizontal_gridline10" stroke="gray" stroke-width=".4" d="M 0,500 L 800,500"/><path id="horizontal_gridline11" stroke="gray" stroke-width=".4" d="M 0,550 L 800,550"/><path id="horizontal_gridline12" stroke="gray" stroke-width=".4" d="M 0,600 L 800,600"/><path id="horizontal_gridline13" stroke="gray" stroke-width=".4" d="M 0,650 L 800,650"/><path id="horizontal_gridline14" stroke="gray" stroke-width=".4" d="M 0,700 L 800,700"/><path id="vertical_gridline0" stroke="gray" stroke-width=".4" d="M 0,0 L 0,700"/><path id="vertical_gridline1" stroke="gray" stroke-width=".4" d="M 50,0 L 50,700"/><path id="vertical_gridline2" stroke="gray" stroke-width=".4" d="M 100,0 L 100,700"/><path id="vertical_gridline3" stroke="gray" stroke-width=".4" d="M 150,0 L 150,700"/><path id="vertical_gridline4" stroke="gray" stroke-width=".4" d="M 200,0 L 200,700"/><path id="vertical_gridline5" stroke="gray" stroke-width=".4" d="M 250,0 L 250,700"/><path id="vertical_gridline6" stroke="gray" stroke-width=".4" d="M 300,0 L 300,700"/><path id="vertical_gridline7" stroke="gray" stroke-width=".4" d="M 350,0 L 350,700"/><path id="vertical_gridline8" stroke="gray" stroke-width=".4" d="M 400,0 L 400,700"/><path id="vertical_gridline9" stroke="gray" stroke-width=".4" d="M 450,0 L 450,700"/><path id="vertical_gridline10" stroke="gray" stroke-width=".4" d="M 500,0 L 500,700"/><path id="vertical_gridline11" stroke="gray" stroke-width=".4" d="M 550,0 L 550,700"/><path id="vertical_gridline12" stroke="gray" stroke-width=".4" d="M 600,0 L 600,700"/><path id="vertical_gridline13" stroke="gray" stroke-width=".4" d="M 650,0 L 650,700"/><path id="vertical_gridline14" stroke="gray" stroke-width=".4" d="M 700,0 L 700,700"/><path id="vertical_gridline15" stroke="gray" stroke-width=".4" d="M 750,0 L 750,700"/><path id="vertical_gridline16" stroke="gray" stroke-width=".4" d="M 800,0 L 800,700"/><path id="y-axis" stroke="#000" stroke-width="4" d="M 400,5 L 400,700"/><path id="y-axis" fill="#000" d="M 400,0 L 410,20 L 390,20 L 400,0"/><path id="x-axis" stroke="#000" stroke-width="4" d="M 0,450 L 795,450"/><path id="y-axis" fill="#000" d="M 800,450 L 780,440 L 780,460 L 800,450"/><text id="x-axislabel" x="760" y="490" font-family="Times New Roman" font-size="50" font-style="italic">x</text><text id="y-axislabel" x="360" y="30" font-family="Times New Roman" font-size="50" font-style="italic">y</text><g id="constraints"><g id="y_geq_0" opacity="1"><text x="110" y="490" font-family="Times New Roman" font-size="50" font-style="italic">y ≥ 0</text><rect width="800" height="250" x="0" y="450" fill="#5af" fill-opacity=".4"/><path stroke="#00f" stroke-width="5" d="M 0,450 L 800,450"/></g><g id="x_geq_0" opacity="1"><text x="290" y="390" font-family="Times New Roman" font-size="50" font-style="italic">x ≥ 0</text><rect width="400" height="700" x="0" y="0" fill="#5af" fill-opacity=".4"/><path stroke="#00f" stroke-width="5" d="M 400,0 L 400,700"/></g><g id="x_leq_4" opacity="1"><text x="610" y="240" font-family="Times New Roman" font-size="50" font-style="italic">x ≤ 4</text><rect width="200" height="700" x="600" y="0" fill="#5af" fill-opacity=".4"/><path stroke="#00f" stroke-width="5" d="M 600,0 L 600,700"/></g><g id="y_leq_6" opacity="1"><text x="110" y="135" font-family="Times New Roman" font-size="50" font-style="italic">y ≤ 6</text><rect width="800" height="150" x="0" y="0" fill="#5af" fill-opacity=".4"/><path stroke="#00f" stroke-width="5" d="M 0,150 L 800,150"/></g><g id="sum_3x_2y_leq_18" opacity="1"><text x="470" y="90" font-family="Times New Roman" font-size="50" font-style="italic">3x+2y ≤ 18</text><path id="infeasible" fill="#5af" fill-opacity=".4" d="M 400,0 L 800,0 L800,600"/><path id="boundary" stroke="#00f" stroke-width="5" d="M 400,0 L 800,600"/></g></g></svg>