<svg width="800" height="700" xmlns="http://www.w3.org/2000/svg" version="1.1" xmlns:xlink="http://www.w3.org/1999/xlink" style="background-color:white">
<!-- Grid -->
<path stroke="#808080" stroke-width="0.4" id="horizontal_gridline0" d="M 0,0 L 800,0"/><path stroke="#808080" stroke-width="0.4" id="horizontal_gridline1" d="M 0,50 L 800,50"/><path stroke="#808080" stroke-width="0.4" id="horizontal_gridline2" d="M 0,100 L 800,100"/><path stroke="#808080" stroke-width="0.4" id="horizontal_gridline3" d="M 0,150 L 800,150"/><path stroke="#808080" stroke-width="0.4" id="horizontal_gridline4" d="M 0,200 L 800,200"/><path stroke="#808080" stroke-width="0.4" id="horizontal_gridline5" d="M 0,250 L 800,250"/><path stroke="#808080" stroke-width="0.4" id="horizontal_gridline6" d="M 0,300 L 800,300"/><path stroke="#808080" stroke-width="0.4" id="horizontal_gridline7" d="M 0,350 L 800,350"/><path stroke="#808080" stroke-width="0.4" id="horizontal_gridline8" d="M 0,400 L 800,400"/><path stroke="#808080" stroke-width="0.4" id="horizontal_gridline9" d="M 0,450 L 800,450"/><path stroke="#808080" stroke-width="0.4" id="horizontal_gridline10" d="M 0,500 L 800,500"/><path stroke="#808080" stroke-width="0.4" id="horizontal_gridline11" d="M 0,550 L 800,550"/><path stroke="#808080" stroke-width="0.4" id="horizontal_gridline12" d="M 0,600 L 800,600"/><path stroke="#808080" stroke-width="0.4" id="horizontal_gridline13" d="M 0,650 L 800,650"/><path stroke="#808080" stroke-width="0.4" id="horizontal_gridline14" d="M 0,700 L 800,700"/><path stroke="#808080" stroke-width="0.4" id="vertical_gridline0" d="M 0,0 L 0,700"/><path stroke="#808080" stroke-width="0.4" id="vertical_gridline1" d="M 50,0 L 50,700"/><path stroke="#808080" stroke-width="0.4" id="vertical_gridline2" d="M 100,0 L 100,700"/><path stroke="#808080" stroke-width="0.4" id="vertical_gridline3" d="M 150,0 L 150,700"/><path stroke="#808080" stroke-width="0.4" id="vertical_gridline4" d="M 200,0 L 200,700"/><path stroke="#808080" stroke-width="0.4" id="vertical_gridline5" d="M 250,0 L 250,700"/><path stroke="#808080" stroke-width="0.4" id="vertical_gridline6" d="M 300,0 L 300,700"/><path stroke="#808080" stroke-width="0.4" id="vertical_gridline7" d="M 350,0 L 350,700"/><path stroke="#808080" stroke-width="0.4" id="vertical_gridline8" d="M 400,0 L 400,700"/><path stroke="#808080" stroke-width="0.4" id="vertical_gridline9" d="M 450,0 L 450,700"/><path stroke="#808080" stroke-width="0.4" id="vertical_gridline10" d="M 500,0 L 500,700"/><path stroke="#808080" stroke-width="0.4" id="vertical_gridline11" d="M 550,0 L 550,700"/><path stroke="#808080" stroke-width="0.4" id="vertical_gridline12" d="M 600,0 L 600,700"/><path stroke="#808080" stroke-width="0.4" id="vertical_gridline13" d="M 650,0 L 650,700"/><path stroke="#808080" stroke-width="0.4" id="vertical_gridline14" d="M 700,0 L 700,700"/><path stroke="#808080" stroke-width="0.4" id="vertical_gridline15" d="M 750,0 L 750,700"/><path stroke="#808080" stroke-width="0.4" id="vertical_gridline16" d="M 800,0 L 800,700"/>
<!-- Axis -->
  <path d="M 400,5 L 400,700" id="y-axis" stroke="#000000" stroke-width="4"/>
  <path d="M 400,0 L 410,20 L 390,20 L 400,0" id="y-axis" fill="#000000"/>
  <path d="M 0,450 L 795,450" id="x-axis" stroke="#000000" stroke-width="4"/>
  <path d="M 800,450 L 780,440 L 780,460 L 800,450" id="y-axis" fill="#000000"/>
<!-- Axis labels -->
  <text id="x-axislabel" x="760" y="490" font-size="50" font-family="Times New Roman" font-style="italic">x</text>
  <text id="y-axislabel" x="360" y="30" font-size="50" font-family="Times New Roman" font-style="italic">y</text>
<!-- Add graph content here-->
<g id="constraints">
  <g id="y_geq_0" opacity="1">
    <text x="110" y="490" font-size="50" font-family="Times New Roman" font-style="italic">y ≥ 0</text>
    <rect width="800" height="250" x="0" y="450" fill="#55aaff" fill-opacity="0.4"/>
    <path d="M 0,450 L 800,450" stroke="#0000ff" stroke-width="5"/>
  </g>
  <g id="x_geq_0" opacity="1">
    <text x="290" y="390" font-size="50" font-family="Times New Roman" font-style="italic">x ≥ 0</text>
    <rect width="400" height="700" x="0" y="0" fill="#55aaff" fill-opacity="0.4"/>
    <path d="M 400,0 L 400,700" stroke="#0000ff" stroke-width="5"/>
  </g>
  <g id="x_leq_4" opacity="1">
    <text x="610" y="240" font-size="50" font-family="Times New Roman" font-style="italic">x ≤ 4</text>
    <rect width="200" height="700" x="600" y="0" fill="#55aaff" fill-opacity="0.4"/>
    <path d="M 600,0 L 600,700" stroke="#0000ff" stroke-width="5"/>
  </g>
  <g id="y_leq_6" opacity="1">
    <text x="110" y="135" font-size="50" font-family="Times New Roman" font-style="italic">y ≤ 6</text>
    <rect width="800" height="150" x="0" y="0" fill="#55aaff" fill-opacity="0.4"/>
    <path d="M 0,150 L 800,150" stroke="#0000ff" stroke-width="5"/>
  </g>
  <g id="sum_3x_2y_leq_18" opacity="1">
    <text x="470" y="90" font-size="50" font-family="Times New Roman" font-style="italic">3x+2y ≤ 18</text>
    <path id="infeasible" d="M 400,0 L 800,0 L800,600" fill="#55aaff" fill-opacity="0.4"/>
    <path id="boundary" d="M 400,0 L 800,600" stroke="#0000ff" stroke-width="5"/>
  </g>
</g>
</svg>
